<?xml version="1.0" encoding="UTF-8"?>
<svg xmlns="http://www.w3.org/2000/svg" width="800.000" height="600.000" viewBox="0.0 0.0 800.000 600.000" version="1.1">
  <desc>Produce by Acme CAD Converter</desc>
<path d="M421.44 260.55L421.44 259.35 421.42 259.95 421.44 260.55Z"
fill="cyan" stroke="cyan" stroke-width="0.2"/>
<path d="M421.44 260.55L421.5 261.15 421.44 259.35 421.44 260.55Z"
fill="cyan" stroke="cyan" stroke-width="0.2"/>
<path d="M421.5 261.15L421.5 258.75 421.44 259.35 421.5 261.15Z"
fill="cyan" stroke="cyan" stroke-width="0.2"/>
<path d="M421.5 261.15L421.6 261.74 421.5 258.75 421.5 261.15Z"
fill="cyan" stroke="cyan" stroke-width="0.2"/>
<path d="M421.6 261.74L421.6 258.16 421.5 258.75 421.6 261.74Z"
fill="cyan" stroke="cyan" stroke-width="0.2"/>
<path d="M421.6 261.74L421.73 262.32 421.6 258.16 421.6 261.74Z"
fill="cyan" stroke="cyan" stroke-width="0.2"/>
<path d="M421.73 262.32L421.73 257.58 421.6 258.16 421.73 262.32Z"
fill="cyan" stroke="cyan" stroke-width="0.2"/>
<path d="M421.73 262.32L421.91 262.9 421.73 257.58 421.73 262.32Z"
fill="cyan" stroke="cyan" stroke-width="0.2"/>
<path d="M421.91 262.9L421.91 257 421.73 257.58 421.91 262.9Z"
fill="cyan" stroke="cyan" stroke-width="0.2"/>
<path d="M421.91 262.9L422.12 263.46 421.91 257 421.91 262.9Z"
fill="cyan" stroke="cyan" stroke-width="0.2"/>
<path d="M422.12 263.46L422.12 256.44 421.91 257 422.12 263.46Z"
fill="cyan" stroke="cyan" stroke-width="0.2"/>
<path d="M422.12 263.46L422.37 264 422.12 256.44 422.12 263.46Z"
fill="cyan" stroke="cyan" stroke-width="0.2"/>
<path d="M422.37 264L422.37 255.9 422.12 256.44 422.37 264Z"
fill="cyan" stroke="cyan" stroke-width="0.2"/>
<path d="M422.37 264L422.65 264.53 422.37 255.9 422.37 264Z"
fill="cyan" stroke="cyan" stroke-width="0.2"/>
<path d="M422.65 264.53L422.65 255.37 422.37 255.9 422.65 264.53Z"
fill="cyan" stroke="cyan" stroke-width="0.2"/>
<path d="M422.65 264.53L422.97 265.04 422.65 255.37 422.65 264.53Z"
fill="cyan" stroke="cyan" stroke-width="0.2"/>
<path d="M422.97 265.04L422.97 254.86 422.65 255.37 422.97 265.04Z"
fill="cyan" stroke="cyan" stroke-width="0.2"/>
<path d="M422.97 265.04L423.32 265.53 422.97 254.86 422.97 265.04Z"
fill="cyan" stroke="cyan" stroke-width="0.2"/>
<path d="M423.32 265.53L423.32 254.37 422.97 254.86 423.32 265.53Z"
fill="cyan" stroke="cyan" stroke-width="0.2"/>
<path d="M423.32 265.53L423.71 265.99 423.32 254.37 423.32 265.53Z"
fill="cyan" stroke="cyan" stroke-width="0.2"/>
<path d="M423.71 265.99L423.71 253.91 423.32 254.37 423.71 265.99Z"
fill="cyan" stroke="cyan" stroke-width="0.2"/>
<path d="M423.71 265.99L424.12 266.43 423.71 253.91 423.71 265.99Z"
fill="cyan" stroke="cyan" stroke-width="0.2"/>
<path d="M424.12 266.43L424.12 253.48 423.71 253.91 424.12 266.43Z"
fill="cyan" stroke="cyan" stroke-width="0.2"/>
<path d="M424.12 266.43L424.56 266.83 424.12 253.48 424.12 266.43Z"
fill="cyan" stroke="cyan" stroke-width="0.2"/>
<path d="M424.56 266.83L424.56 253.07 424.12 253.48 424.56 266.83Z"
fill="cyan" stroke="cyan" stroke-width="0.2"/>
<path d="M424.56 266.83L425.02 267.21 424.56 253.07 424.56 266.83Z"
fill="cyan" stroke="cyan" stroke-width="0.2"/>
<path d="M425.02 267.21L425.02 252.69 424.56 253.07 425.02 267.21Z"
fill="cyan" stroke="cyan" stroke-width="0.2"/>
<path d="M425.02 267.21L425.51 267.56 425.02 252.69 425.02 267.21Z"
fill="cyan" stroke="cyan" stroke-width="0.2"/>
<path d="M425.51 267.56L425.51 252.34 425.02 252.69 425.51 267.56Z"
fill="cyan" stroke="cyan" stroke-width="0.2"/>
<path d="M425.51 267.56L426.03 267.87 425.51 252.34 425.51 267.56Z"
fill="cyan" stroke="cyan" stroke-width="0.2"/>
<path d="M426.03 267.87L426.03 252.03 425.51 252.34 426.03 267.87Z"
fill="cyan" stroke="cyan" stroke-width="0.2"/>
<path d="M426.03 267.87L426.56 268.15 426.03 252.03 426.03 267.87Z"
fill="cyan" stroke="cyan" stroke-width="0.2"/>
<path d="M426.56 268.15L426.56 251.75 426.03 252.03 426.56 268.15Z"
fill="cyan" stroke="cyan" stroke-width="0.2"/>
<path d="M426.56 268.15L427.11 268.4 426.56 251.75 426.56 268.15Z"
fill="cyan" stroke="cyan" stroke-width="0.2"/>
<path d="M427.11 268.4L427.11 251.51 426.56 251.75 427.11 268.4Z"
fill="cyan" stroke="cyan" stroke-width="0.2"/>
<path d="M427.11 268.4L427.67 268.6 427.11 251.51 427.11 268.4Z"
fill="cyan" stroke="cyan" stroke-width="0.2"/>
<path d="M427.67 268.6L427.67 251.3 427.11 251.51 427.67 268.6Z"
fill="cyan" stroke="cyan" stroke-width="0.2"/>
<path d="M427.67 268.6L428.24 268.77 427.67 251.3 427.67 268.6Z"
fill="cyan" stroke="cyan" stroke-width="0.2"/>
<path d="M428.24 268.77L428.24 251.13 427.67 251.3 428.24 268.77Z"
fill="cyan" stroke="cyan" stroke-width="0.2"/>
<path d="M428.24 268.77L428.83 268.9 428.24 251.13 428.24 268.77Z"
fill="cyan" stroke="cyan" stroke-width="0.2"/>
<path d="M428.83 268.9L428.83 251 428.24 251.13 428.83 268.9Z"
fill="cyan" stroke="cyan" stroke-width="0.2"/>
<path d="M428.83 268.9L429.42 269 428.83 251 428.83 268.9Z"
fill="cyan" stroke="cyan" stroke-width="0.2"/>
<path d="M429.42 269L429.42 250.9 428.83 251 429.42 269Z"
fill="cyan" stroke="cyan" stroke-width="0.2"/>
<path d="M429.42 269L430.02 269.05 429.42 250.9 429.42 269Z"
fill="cyan" stroke="cyan" stroke-width="0.2"/>
<path d="M430.02 269.05L430.02 250.85 429.42 250.9 430.02 269.05Z"
fill="cyan" stroke="cyan" stroke-width="0.2"/>
<path d="M430.02 269.05L430.62 269.06 430.02 250.85 430.02 269.05Z"
fill="cyan" stroke="cyan" stroke-width="0.2"/>
<path d="M430.62 269.06L430.62 250.84 430.02 250.85 430.62 269.06Z"
fill="cyan" stroke="cyan" stroke-width="0.2"/>
<path d="M430.62 269.06L431.22 269.04 430.62 250.84 430.62 269.06Z"
fill="cyan" stroke="cyan" stroke-width="0.2"/>
<path d="M431.22 269.04L431.22 250.86 430.62 250.84 431.22 269.04Z"
fill="cyan" stroke="cyan" stroke-width="0.2"/>
<path d="M431.22 269.04L431.82 268.97 431.22 250.86 431.22 269.04Z"
fill="cyan" stroke="cyan" stroke-width="0.2"/>
<path d="M431.82 268.97L431.82 250.93 431.22 250.86 431.82 268.97Z"
fill="cyan" stroke="cyan" stroke-width="0.2"/>
<path d="M431.82 268.97L432.41 268.87 431.82 250.93 431.82 268.97Z"
fill="cyan" stroke="cyan" stroke-width="0.2"/>
<path d="M432.41 268.87L432.41 251.03 431.82 250.93 432.41 268.87Z"
fill="cyan" stroke="cyan" stroke-width="0.2"/>
<path d="M432.41 268.87L432.99 268.73 432.41 251.03 432.41 268.87Z"
fill="cyan" stroke="cyan" stroke-width="0.2"/>
<path d="M432.99 268.73L432.99 251.17 432.41 251.03 432.99 268.73Z"
fill="cyan" stroke="cyan" stroke-width="0.2"/>
<path d="M432.99 268.73L433.56 268.55 432.99 251.17 432.99 268.73Z"
fill="cyan" stroke="cyan" stroke-width="0.2"/>
<path d="M433.56 268.55L433.56 251.36 432.99 251.17 433.56 268.55Z"
fill="cyan" stroke="cyan" stroke-width="0.2"/>
<path d="M433.56 268.55L434.12 268.33 433.56 251.36 433.56 268.55Z"
fill="cyan" stroke="cyan" stroke-width="0.2"/>
<path d="M434.12 268.33L434.12 251.57 433.56 251.36 434.12 268.33Z"
fill="cyan" stroke="cyan" stroke-width="0.2"/>
<path d="M434.12 268.33L434.66 268.07 434.12 251.57 434.12 268.33Z"
fill="cyan" stroke="cyan" stroke-width="0.2"/>
<path d="M434.66 268.07L434.66 251.83 434.12 251.57 434.66 268.07Z"
fill="cyan" stroke="cyan" stroke-width="0.2"/>
<path d="M434.66 268.07L435.19 267.78 434.66 251.83 434.66 268.07Z"
fill="cyan" stroke="cyan" stroke-width="0.2"/>
<path d="M435.19 267.78L435.19 252.12 434.66 251.83 435.19 267.78Z"
fill="cyan" stroke="cyan" stroke-width="0.2"/>
<path d="M435.19 267.78L435.7 267.46 435.19 252.12 435.19 267.78Z"
fill="cyan" stroke="cyan" stroke-width="0.2"/>
<path d="M435.7 267.46L435.7 252.44 435.19 252.12 435.7 267.46Z"
fill="cyan" stroke="cyan" stroke-width="0.2"/>
<path d="M435.7 267.46L436.18 267.1 435.7 252.44 435.7 267.46Z"
fill="cyan" stroke="cyan" stroke-width="0.2"/>
<path d="M436.18 267.1L436.18 252.8 435.7 252.44 436.18 267.1Z"
fill="cyan" stroke="cyan" stroke-width="0.2"/>
<path d="M436.18 267.1L436.64 266.72 436.18 252.8 436.18 267.1Z"
fill="cyan" stroke="cyan" stroke-width="0.2"/>
<path d="M436.64 266.72L436.64 253.18 436.18 252.8 436.64 266.72Z"
fill="cyan" stroke="cyan" stroke-width="0.2"/>
<path d="M436.64 266.72L437.07 266.3 436.64 253.18 436.64 266.72Z"
fill="cyan" stroke="cyan" stroke-width="0.2"/>
<path d="M437.07 266.3L437.07 253.6 436.64 253.18 437.07 266.3Z"
fill="cyan" stroke="cyan" stroke-width="0.2"/>
<path d="M437.07 266.3L437.47 265.86 437.07 253.6 437.07 266.3Z"
fill="cyan" stroke="cyan" stroke-width="0.2"/>
<path d="M437.47 265.86L437.47 254.04 437.07 253.6 437.47 265.86Z"
fill="cyan" stroke="cyan" stroke-width="0.2"/>
<path d="M437.47 265.86L437.85 265.39 437.47 254.04 437.47 265.86Z"
fill="cyan" stroke="cyan" stroke-width="0.2"/>
<path d="M437.85 265.39L437.85 254.51 437.47 254.04 437.85 265.39Z"
fill="cyan" stroke="cyan" stroke-width="0.2"/>
<path d="M437.85 265.39L438.19 264.89 437.85 254.51 437.85 265.39Z"
fill="cyan" stroke="cyan" stroke-width="0.2"/>
<path d="M438.19 264.89L438.19 255.01 437.85 254.51 438.19 264.89Z"
fill="cyan" stroke="cyan" stroke-width="0.2"/>
<path d="M438.19 264.89L438.5 264.38 438.19 255.01 438.19 264.89Z"
fill="cyan" stroke="cyan" stroke-width="0.2"/>
<path d="M438.5 264.38L438.5 255.52 438.19 255.01 438.5 264.38Z"
fill="cyan" stroke="cyan" stroke-width="0.2"/>
<path d="M438.5 264.38L438.77 263.85 438.5 255.52 438.5 264.38Z"
fill="cyan" stroke="cyan" stroke-width="0.2"/>
<path d="M438.77 263.85L438.77 256.06 438.5 255.52 438.77 263.85Z"
fill="cyan" stroke="cyan" stroke-width="0.2"/>
<path d="M438.77 263.85L439.01 263.29 438.77 256.06 438.77 263.85Z"
fill="cyan" stroke="cyan" stroke-width="0.2"/>
<path d="M439.01 263.29L439.01 256.61 438.77 256.06 439.01 263.29Z"
fill="cyan" stroke="cyan" stroke-width="0.2"/>
<path d="M439.01 263.29L439.21 262.73 439.01 256.61 439.01 263.29Z"
fill="cyan" stroke="cyan" stroke-width="0.2"/>
<path d="M439.21 257.17L439.21 257.17 439.01 256.61 439.21 257.17Z"
fill="cyan" stroke="cyan" stroke-width="0.2"/>
<path d="M439.21 262.73L439.37 262.19 439.21 257.17 439.21 262.73Z"
fill="cyan" stroke="cyan" stroke-width="0.2"/>
<path d="M439.37 262.19L439.37 257.71 439.21 257.17 439.37 262.19Z"
fill="cyan" stroke="cyan" stroke-width="0.2"/>
<path d="M439.37 262.19L439.49 261.64 439.37 257.71 439.37 262.19Z"
fill="cyan" stroke="cyan" stroke-width="0.2"/>
<path d="M439.49 261.64L439.49 258.27 439.37 257.71 439.49 261.64Z"
fill="cyan" stroke="cyan" stroke-width="0.2"/>
<path d="M439.49 261.64L439.58 261.08 439.49 258.27 439.49 261.64Z"
fill="cyan" stroke="cyan" stroke-width="0.2"/>
<path d="M439.58 261.08L439.58 258.82 439.49 258.27 439.58 261.08Z"
fill="cyan" stroke="cyan" stroke-width="0.2"/>
<path d="M439.58 261.08L439.63 260.52 439.58 258.82 439.58 261.08Z"
fill="cyan" stroke="cyan" stroke-width="0.2"/>
<path d="M439.63 260.52L439.63 259.39 439.58 258.82 439.63 260.52Z"
fill="cyan" stroke="cyan" stroke-width="0.2"/>
<path d="M439.63 260.52L439.65 259.95 439.63 259.39 439.63 260.52Z"
fill="cyan" stroke="cyan" stroke-width="0.2"/>
<path d="M439.21 262.73L439.21 257.17 439.01 256.61 439.21 262.73Z"
fill="cyan" stroke="cyan" stroke-width="0.2"/>
<path d="M439.65 259.95L439.45 261.85"
fill="none" stroke="cyan" stroke-width="0.5"/>
<path d="M439.45 261.85L438.86 263.66"
fill="none" stroke="cyan" stroke-width="0.5"/>
<path d="M438.86 263.66L437.9 265.31"
fill="none" stroke="cyan" stroke-width="0.5"/>
<path d="M437.9 265.31L436.63 266.72"
fill="none" stroke="cyan" stroke-width="0.5"/>
<path d="M436.63 266.72L435.09 267.84"
fill="none" stroke="cyan" stroke-width="0.5"/>
<path d="M435.09 267.84L433.35 268.62"
fill="none" stroke="cyan" stroke-width="0.5"/>
<path d="M433.35 268.62L431.48 269.01"
fill="none" stroke="cyan" stroke-width="0.5"/>
<path d="M431.48 269.01L429.58 269.01"
fill="none" stroke="cyan" stroke-width="0.5"/>
<path d="M429.58 269.01L427.72 268.62"
fill="none" stroke="cyan" stroke-width="0.5"/>
<path d="M427.72 268.62L425.97 267.84"
fill="none" stroke="cyan" stroke-width="0.5"/>
<path d="M425.97 267.84L424.43 266.72"
fill="none" stroke="cyan" stroke-width="0.5"/>
<path d="M424.43 266.72L423.16 265.31"
fill="none" stroke="cyan" stroke-width="0.5"/>
<path d="M423.16 265.31L422.21 263.66"
fill="none" stroke="cyan" stroke-width="0.5"/>
<path d="M422.21 263.66L421.62 261.85"
fill="none" stroke="cyan" stroke-width="0.5"/>
<path d="M421.62 261.85L421.42 259.95"
fill="none" stroke="cyan" stroke-width="0.5"/>
<path d="M421.42 259.95L421.62 258.06"
fill="none" stroke="cyan" stroke-width="0.5"/>
<path d="M421.62 258.06L422.21 256.24"
fill="none" stroke="cyan" stroke-width="0.5"/>
<path d="M422.21 256.24L423.16 254.59"
fill="none" stroke="cyan" stroke-width="0.5"/>
<path d="M423.16 254.59L424.43 253.18"
fill="none" stroke="cyan" stroke-width="0.5"/>
<path d="M424.43 253.18L425.97 252.06"
fill="none" stroke="cyan" stroke-width="0.5"/>
<path d="M425.97 252.06L427.72 251.28"
fill="none" stroke="cyan" stroke-width="0.5"/>
<path d="M427.72 251.28L429.58 250.89"
fill="none" stroke="cyan" stroke-width="0.5"/>
<path d="M429.58 250.89L431.48 250.89"
fill="none" stroke="cyan" stroke-width="0.5"/>
<path d="M431.48 250.89L433.35 251.28"
fill="none" stroke="cyan" stroke-width="0.5"/>
<path d="M433.35 251.28L435.09 252.06"
fill="none" stroke="cyan" stroke-width="0.5"/>
<path d="M435.09 252.06L436.63 253.18"
fill="none" stroke="cyan" stroke-width="0.5"/>
<path d="M436.63 253.18L437.9 254.59"
fill="none" stroke="cyan" stroke-width="0.5"/>
<path d="M437.9 254.59L438.86 256.24"
fill="none" stroke="cyan" stroke-width="0.5"/>
<path d="M438.86 256.24L439.45 258.06"
fill="none" stroke="cyan" stroke-width="0.5"/>
<path d="M439.45 258.06L439.65 259.95"
fill="none" stroke="cyan" stroke-width="0.5"/>
<path d="M245.67 186.01L400.72 186.01"
fill="none" stroke="red" stroke-width="0.5"/>
<path d="M400.72 186.01L439.21 221.4"
fill="none" stroke="red" stroke-width="0.5"/>
<path d="M439.21 221.4L439.21 308.18Z"
fill="none" stroke="red" stroke-width="0.5"/>
<path d="M439.21 308.18L439.21 308.18Z"
fill="none" stroke="red" stroke-width="0.5"/>
<path d="M439.21 308.18L439.02 311.32"
fill="none" stroke="red" stroke-width="0.5"/>
<path d="M439.02 311.32L438.45 314.42"
fill="none" stroke="red" stroke-width="0.5"/>
<path d="M438.45 314.42L437.52 317.42"
fill="none" stroke="red" stroke-width="0.5"/>
<path d="M437.52 317.42L436.23 320.29"
fill="none" stroke="red" stroke-width="0.5"/>
<path d="M436.23 320.29L434.6 322.98"
fill="none" stroke="red" stroke-width="0.5"/>
<path d="M434.6 322.98L432.66 325.45"
fill="none" stroke="red" stroke-width="0.5"/>
<path d="M432.66 325.45L430.44 327.68"
fill="none" stroke="red" stroke-width="0.5"/>
<path d="M430.44 327.68L427.96 329.61"
fill="none" stroke="red" stroke-width="0.5"/>
<path d="M427.96 329.61L425.27 331.24"
fill="none" stroke="red" stroke-width="0.5"/>
<path d="M425.27 331.24L422.41 332.53"
fill="none" stroke="red" stroke-width="0.5"/>
<path d="M422.41 332.53L419.4 333.47"
fill="none" stroke="red" stroke-width="0.5"/>
<path d="M419.4 333.47L416.31 334.03"
fill="none" stroke="red" stroke-width="0.5"/>
<path d="M416.31 334.03L413.17 334.22"
fill="none" stroke="red" stroke-width="0.5"/>
<path d="M413.17 334.22L197.48 334.22"
fill="none" stroke="red" stroke-width="0.5"/>
<path d="M197.48 334.22L197.48 267.49Z"
fill="none" stroke="red" stroke-width="0.5"/>
<path d="M197.48 267.49L227.57 267.49"
fill="none" stroke="red" stroke-width="0.5"/>
<path d="M227.57 267.49L227.57 234.43Z"
fill="none" stroke="red" stroke-width="0.5"/>
<path d="M227.57 234.43L245.67 234.43"
fill="none" stroke="red" stroke-width="0.5"/>
<path d="M245.67 234.43L245.67 186.01Z"
fill="none" stroke="red" stroke-width="0.5"/>
<path d="M273.78 273.49L300.86 273.49 273.78 246.41 273.78 273.49Z"
fill="cyan" stroke="cyan" stroke-width="0.2"/>
<path d="M300.86 273.49L300.86 246.41 273.78 246.41 300.86 273.49Z"
fill="cyan" stroke="cyan" stroke-width="0.2"/>
<path d="M273.78 273.49L300.86 273.49"
fill="none" stroke="cyan" stroke-width="0.5"/>
<path d="M300.86 273.49L300.86 246.41Z"
fill="none" stroke="cyan" stroke-width="0.5"/>
<path d="M300.86 246.41L273.78 246.41"
fill="none" stroke="cyan" stroke-width="0.5"/>
<path d="M273.78 246.41L273.78 273.49Z"
fill="none" stroke="cyan" stroke-width="0.5"/>
</svg>
