<?xml version="1.0" encoding="UTF-8"?>
<svg xmlns="http://www.w3.org/2000/svg" width="800.000" height="600.000" viewBox="0.0 0.0 800.000 600.000" version="1.1">
  <desc>Produce by Acme CAD Converter</desc>
<path d="M412.05 221.25L280.14 221.68"
fill="none" stroke="red" stroke-width="0.5"/>
<path d="M280.14 221.68L280.14 221.68Z"
fill="none" stroke="red" stroke-width="0.5"/>
<path d="M280.14 221.68L278.38 226.54"
fill="none" stroke="red" stroke-width="0.5"/>
<path d="M278.38 226.54L276.97 231.52"
fill="none" stroke="red" stroke-width="0.5"/>
<path d="M276.97 231.52L275.94 236.59"
fill="none" stroke="red" stroke-width="0.5"/>
<path d="M275.94 236.59L275.27 241.71"
fill="none" stroke="red" stroke-width="0.5"/>
<path d="M275.27 241.71L274.98 246.88"
fill="none" stroke="red" stroke-width="0.5"/>
<path d="M274.98 246.88L275.06 252.05"
fill="none" stroke="red" stroke-width="0.5"/>
<path d="M275.06 252.05L275.52 257.2"
fill="none" stroke="red" stroke-width="0.5"/>
<path d="M275.52 257.2L276.35 262.31"
fill="none" stroke="red" stroke-width="0.5"/>
<path d="M276.35 262.31L277.55 267.34"
fill="none" stroke="red" stroke-width="0.5"/>
<path d="M277.55 267.34L279.12 272.27"
fill="none" stroke="red" stroke-width="0.5"/>
<path d="M279.12 272.27L281.03 277.07"
fill="none" stroke="red" stroke-width="0.5"/>
<path d="M281.03 277.07L283.29 281.72"
fill="none" stroke="red" stroke-width="0.5"/>
<path d="M283.29 281.72L285.88 286.2"
fill="none" stroke="red" stroke-width="0.5"/>
<path d="M285.88 286.2L288.79 290.48"
fill="none" stroke="red" stroke-width="0.5"/>
<path d="M288.79 290.48L292 294.53"
fill="none" stroke="red" stroke-width="0.5"/>
<path d="M292 294.53L295.5 298.34"
fill="none" stroke="red" stroke-width="0.5"/>
<path d="M295.5 298.34L299.26 301.89"
fill="none" stroke="red" stroke-width="0.5"/>
<path d="M299.26 301.89L303.28 305.15"
fill="none" stroke="red" stroke-width="0.5"/>
<path d="M303.28 305.15L307.52 308.12"
fill="none" stroke="red" stroke-width="0.5"/>
<path d="M307.52 308.12L311.96 310.76"
fill="none" stroke="red" stroke-width="0.5"/>
<path d="M311.96 310.76L316.58 313.08"
fill="none" stroke="red" stroke-width="0.5"/>
<path d="M316.58 313.08L321.36 315.06"
fill="none" stroke="red" stroke-width="0.5"/>
<path d="M321.36 315.06L326.27 316.69"
fill="none" stroke="red" stroke-width="0.5"/>
<path d="M326.27 316.69L331.29 317.95"
fill="none" stroke="red" stroke-width="0.5"/>
<path d="M331.29 317.95L336.38 318.85"
fill="none" stroke="red" stroke-width="0.5"/>
<path d="M336.38 318.85L341.52 319.37"
fill="none" stroke="red" stroke-width="0.5"/>
<path d="M341.52 319.37L346.69 319.52"
fill="none" stroke="red" stroke-width="0.5"/>
<path d="M346.69 319.52L351.86 319.3"
fill="none" stroke="red" stroke-width="0.5"/>
<path d="M351.86 319.3L351.86 319.3Z"
fill="none" stroke="red" stroke-width="0.5"/>
<path d="M351.86 319.3L356.98 318.7"
fill="none" stroke="red" stroke-width="0.5"/>
<path d="M356.98 318.7L362.04 317.74"
fill="none" stroke="red" stroke-width="0.5"/>
<path d="M362.04 317.74L367.01 316.41"
fill="none" stroke="red" stroke-width="0.5"/>
<path d="M367.01 316.41L371.88 314.72"
fill="none" stroke="red" stroke-width="0.5"/>
<path d="M371.88 314.72L376.61 312.69"
fill="none" stroke="red" stroke-width="0.5"/>
<path d="M376.61 312.69L381.18 310.33"
fill="none" stroke="red" stroke-width="0.5"/>
<path d="M381.18 310.33L385.57 307.63"
fill="none" stroke="red" stroke-width="0.5"/>
<path d="M385.57 307.63L389.76 304.63"
fill="none" stroke="red" stroke-width="0.5"/>
<path d="M389.76 304.63L393.71 301.33"
fill="none" stroke="red" stroke-width="0.5"/>
<path d="M393.71 301.33L397.42 297.76"
fill="none" stroke="red" stroke-width="0.5"/>
<path d="M397.42 297.76L400.86 293.93"
fill="none" stroke="red" stroke-width="0.5"/>
<path d="M400.86 293.93L404.01 289.86"
fill="none" stroke="red" stroke-width="0.5"/>
<path d="M404.01 289.86L406.87 285.57"
fill="none" stroke="red" stroke-width="0.5"/>
<path d="M406.87 285.57L409.4 281.08"
fill="none" stroke="red" stroke-width="0.5"/>
<path d="M409.4 281.08L411.6 276.43"
fill="none" stroke="red" stroke-width="0.5"/>
<path d="M411.6 276.43L413.46 271.63"
fill="none" stroke="red" stroke-width="0.5"/>
<path d="M413.46 271.63L414.97 266.7"
fill="none" stroke="red" stroke-width="0.5"/>
<path d="M414.97 266.7L416.12 261.68"
fill="none" stroke="red" stroke-width="0.5"/>
<path d="M416.12 261.68L416.9 256.59"
fill="none" stroke="red" stroke-width="0.5"/>
<path d="M416.9 256.59L417.32 251.46"
fill="none" stroke="red" stroke-width="0.5"/>
<path d="M417.32 251.46L417.36 246.31"
fill="none" stroke="red" stroke-width="0.5"/>
<path d="M417.36 246.31L417.03 241.17"
fill="none" stroke="red" stroke-width="0.5"/>
<path d="M417.03 241.17L416.33 236.07"
fill="none" stroke="red" stroke-width="0.5"/>
<path d="M416.33 236.07L415.26 231.03"
fill="none" stroke="red" stroke-width="0.5"/>
<path d="M415.26 231.03L413.83 226.08"
fill="none" stroke="red" stroke-width="0.5"/>
<path d="M413.83 226.08L412.05 221.25"
fill="none" stroke="red" stroke-width="0.5"/>
<path d="M353.33 266.01L353.33 244.95 341.53 266.01 353.33 266.01Z"
fill="cyan" stroke="cyan" stroke-width="0.2"/>
<path d="M353.33 266.01L405.16 266.01 353.33 244.95 353.33 266.01Z"
fill="cyan" stroke="cyan" stroke-width="0.2"/>
<path d="M353.33 244.95L341.53 266.01"
fill="none" stroke="cyan" stroke-width="0.5"/>
<path d="M341.53 266.01L405.16 266.01"
fill="none" stroke="cyan" stroke-width="0.5"/>
<path d="M405.16 266.01L353.33 244.95"
fill="none" stroke="cyan" stroke-width="0.5"/>
</svg>
